<svg id="Camada_1" data-name="Camada 1" xmlns="http://www.w3.org/2000/svg" viewBox="0 0 32 32"><defs><style>.cls-1{fill:#eaeaea;}</style></defs><path class="cls-1" d="M30.84,15a5.1,5.1,0,0,0-.47-.46L18.2,3.26a3.55,3.55,0,0,0-2-1h-.32a3.55,3.55,0,0,0-2,1L1.63,14.49a5.1,5.1,0,0,0-.47.46,1,1,0,0,0,0,1.34,1,1,0,0,0,1.32.18c.16-.1.3-.22.6-.44,0,2.74,0,5.3,0,7.87,0,.84,0,1.69,0,2.54a3.08,3.08,0,0,0,3.33,3.31h6.12a.2.2,0,0,1,0-.07V20.76a.91.91,0,0,1,.91-.9h5.14a.91.91,0,0,1,.91.9v8.93a.2.2,0,0,1,0,.07h6.12a3.08,3.08,0,0,0,3.33-3.31c0-.85,0-1.7,0-2.54,0-2.57,0-5.13,0-7.87.3.22.44.34.6.44A1,1,0,0,0,30.84,15Z"/></svg>