<svg id="Camada_1" data-name="Camada 1" xmlns="http://www.w3.org/2000/svg" viewBox="0 0 32 32"><defs><style>.cls-1{fill:#eaeaea;}</style></defs><rect class="cls-1" x="7.96" y="0.93" width="15.06" height="4.24" rx="0.24"/><path class="cls-1" d="M23.29,3.19H7.71A3.38,3.38,0,0,0,4.33,6.57V26.25a3.38,3.38,0,0,0,3.38,3.38H23.29a3.38,3.38,0,0,0,3.38-3.38V6.57A3.38,3.38,0,0,0,23.29,3.19Zm-.95,18.88a.59.59,0,0,1-.59.59H9.24a.6.6,0,0,1-.59-.59V22a.6.6,0,0,1,.59-.59H21.75a.59.59,0,0,1,.59.59Zm0-3.83a.58.58,0,0,1-.59.59H9.24a.59.59,0,0,1-.59-.59v0a.59.59,0,0,1,.59-.59H21.75a.58.58,0,0,1,.59.59Zm0-3.82a.59.59,0,0,1-.59.59H9.24a.6.6,0,0,1-.59-.59v-.05a.59.59,0,0,1,.59-.59H21.75a.58.58,0,0,1,.59.59Zm0-3.83a.58.58,0,0,1-.59.59H9.24a.59.59,0,0,1-.59-.59v0a.6.6,0,0,1,.59-.6H21.75a.59.59,0,0,1,.59.6Zm4,15.23-3,3A.45.45,0,0,1,23,29a.47.47,0,0,1-.33-.14L21.1,27.28A.44.44,0,0,1,21,27a.43.43,0,0,1,.14-.32l.11-.12a.47.47,0,0,1,.66,0L23,27.62l2.57-2.57a.46.46,0,0,1,.65,0l.12.12a.49.49,0,0,1,.13.33A.46.46,0,0,1,26.31,25.82Z"/><path class="cls-1" d="M23.47,22.65a4.21,4.21,0,1,0,4.2,4.21A4.2,4.2,0,0,0,23.47,22.65Zm2.84,3.17-3,3A.45.45,0,0,1,23,29a.47.47,0,0,1-.33-.14L21.1,27.28A.44.44,0,0,1,21,27a.43.43,0,0,1,.14-.32l.11-.12a.47.47,0,0,1,.66,0L23,27.62l2.57-2.57a.46.46,0,0,1,.65,0l.12.12a.49.49,0,0,1,.13.33A.46.46,0,0,1,26.31,25.82Z"/></svg>