<?xml version="1.0" encoding="UTF-8"?>
<svg id="Camada_1" data-name="Camada 1" xmlns="http://www.w3.org/2000/svg" version="1.1" viewBox="0 0 32 32">
  <defs>
    <style>
      .cls-1 {
        fill: #eaeaea;
        stroke-width: 0px;
      }
    </style>
  </defs>
  <path class="cls-1" d="M23.6,1.2c.5,0,.9.3.9.7v5.4c0,.5-.5.8-.9.7h-1.6c-.5,0-.9-.3-.9-.7V2c0-.5.5-.8.9-.7h1.6"/>
  <path class="cls-1" d="M9.9,1.2c.4,0,.8.3.9.7v5.4c0,.4-.4.8-.9.7h-1.6c-.5,0-.9-.3-.9-.7V2c0-.5.5-.8.9-.7h1.6"/>
  <path class="cls-1" d="M28.3,4.4h-2.1v2.7c0,1.5-1.2,2.8-2.8,2.8h-1.4c-1.5,0-2.8-1.2-2.8-2.8v-2.7h-6.5v2.8c0,1.5-1.2,2.8-2.8,2.8h-1.4c-1.5,0-2.8-1.2-2.8-2.8v-2.8h-2.1c-1.7,0-3,1.4-3.1,3.1v20.2c0,1.7,1.4,3,3.1,3.1h24.6c1.7,0,3.1-1.4,3.1-3.1V7.5c0-1.7-1.4-3-3-3.1ZM28.3,24.6c0,1-.9,1.8-1.9,1.7H5.3c-1,0-1.8-.7-1.9-1.7v-8.6c0-1,.9-1.8,1.9-1.7h21.2c1,0,1.8.7,1.9,1.7v8.6Z"/>
</svg>