<svg id="Camada_1" data-name="Camada 1" xmlns="http://www.w3.org/2000/svg" viewBox="0 0 32 32"><defs><style>.cls-1{fill:#eaeaea;}</style></defs><path class="cls-1" d="M16,23.77H11.57a1.17,1.17,0,0,1-1.34-1.35,6,6,0,0,0-1.75-4.29A10.4,10.4,0,1,1,23.7,18a6.31,6.31,0,0,0-1.79,3.21,12.45,12.45,0,0,0-.12,1.37,1.17,1.17,0,0,1-1.24,1.23ZM15.54,5.21a5.63,5.63,0,0,0-4.82,3.37,5.37,5.37,0,0,0-.27.8,1.14,1.14,0,0,0,.7,1.44,1.16,1.16,0,0,0,1.46-.67,7.06,7.06,0,0,1,.57-1.21,3.31,3.31,0,0,1,2.76-1.42,1.18,1.18,0,0,0,1.13-.73C17.42,6,16.78,5.18,15.54,5.21Z"/><rect class="cls-1" x="10.77" y="25.24" width="10.15" height="6.18" rx="0.32"/></svg>