<?xml version="1.0" encoding="UTF-8"?>
<svg id="Camada_1" data-name="Camada 1" xmlns="http://www.w3.org/2000/svg" version="1.1" viewBox="0 0 32 32">
  <defs>
    <style>
      .cls-1 {
        fill: #eaeaea;
        stroke-width: 0px;
      }
    </style>
  </defs>
  <path class="cls-1" d="M26.9,8.5h-9.5c-1.1,0-2,.9-2,2v19.1c0,1.1.9,2,2,2h9.5c1.1,0,2-.9,2-2V10.6c0-1.1-.9-2-2-2ZM19.4,25.1c0,.2-.2.4-.4.4h-1.2c-.2,0-.4-.2-.4-.4v-1.2c0-.2.2-.4.4-.4h1.2c.2,0,.4.2.4.4v1.2ZM19.4,21.3c0,.2-.2.4-.4.4h-1.2c-.2,0-.4-.2-.4-.4v-1.2c0-.2.2-.4.4-.4h1.2c.2,0,.4.2.4.4v1.2ZM19.4,17.4c0,.2-.2.4-.4.4h-1.2c-.2,0-.4-.2-.4-.4v-1.2c0-.2.2-.4.4-.4h1.2c.2,0,.4.2.4.4v1.2ZM19.4,13.6c0,.2-.2.4-.4.4h-1.2c-.2,0-.4-.2-.4-.4v-1.2c0-.2.2-.4.4-.4h1.2c.2,0,.4.2.4.4v1.2ZM23.1,25.1c0,.2-.2.4-.4.4h-1.2c-.2,0-.4-.2-.4-.4v-1.2c0-.2.2-.4.4-.4h1.2c.2,0,.4.2.4.4v1.2ZM23.1,21.3c0,.2-.2.4-.4.4h-1.2c-.2,0-.4-.2-.4-.4v-1.2c0-.2.2-.4.4-.4h1.2c.2,0,.4.2.4.4v1.2ZM23.1,17.4c0,.2-.2.4-.4.4h-1.2c-.2,0-.4-.2-.4-.4v-1.2c0-.2.2-.4.4-.4h1.2c.2,0,.4.2.4.4v1.2ZM23.1,13.6c0,.2-.2.4-.4.4h-1.2c-.2,0-.4-.2-.4-.4v-1.2c0-.2.2-.4.4-.4h1.2c.2,0,.4.2.4.4v1.2ZM26.8,25.1c0,.2-.2.4-.4.4h-1.2c-.2,0-.4-.2-.4-.4v-1.2c0-.2.2-.4.4-.4h1.2c.2,0,.4.2.4.4v1.2ZM26.8,21.3c0,.2-.2.4-.4.4h-1.2c-.2,0-.4-.2-.4-.4v-1.2c0-.2.2-.4.4-.4h1.2c.2,0,.4.2.4.4v1.2ZM26.8,17.4c0,.2-.2.4-.4.4h-1.2c-.2,0-.4-.2-.4-.4v-1.2c0-.2.2-.4.4-.4h1.2c.2,0,.4.2.4.4v1.2ZM26.8,13.6c0,.2-.2.4-.4.4h-1.2c-.2,0-.4-.2-.4-.4v-1.2c0-.2.2-.4.4-.4h1.2c.2,0,.4.2.4.4v1.2Z"/>
  <path class="cls-1" d="M14.4.3H5.3c-1.2,0-2.3,1-2.3,2.3h0v26.9c0,1.2,1,2.3,2.3,2.3h2.5v-6.1c0,0,0-.2.2-.2h3.6c0,0,.2,0,.2.2v6.1h2.5c1.2,0,2.3-1,2.3-2.3V2.6c0-1.2-1-2.3-2.2-2.3h0ZM8.7,18.8v2.3h-2.3v-2.3h2.3ZM8.7,14.1v2.3h-2.3v-2.3h2.3ZM8.7,9.4v2.3h-2.3v-2.3h2.3ZM8.7,4.7v2.3h-2.3v-2.3h2.3ZM13.3,18.8v2.3h-2.3v-2.3h2.3ZM13.3,14.1v2.3h-2.3v-2.3h2.3ZM13.3,9.4v2.3h-2.3v-2.3h2.3ZM13.3,4.7v2.3h-2.3v-2.3h2.3Z"/>
</svg>